<svg viewBox="0 0 514 362" fill="none" xmlns="http://www.w3.org/2000/svg">
<path d="M391.62 40.6807C384.842 36.9771 381.768 40.0617 379.303 36.9771C376.837 33.8926 386.08 25.8876 367.562 17.8827C367.562 17.8827 366.335 0.634749 341.071 0.0157015C315.808 -0.603346 322.617 17.2636 315.84 21.5756C309.062 25.8876 307.216 19.1528 300.438 23.4221C293.661 27.6914 296.745 36.3581 291.206 37.5855C285.667 38.8129 278.259 32.0461 271.482 36.3581C264.704 40.6701 264.704 44.363 261.631 44.363C258.557 44.363 252.387 41.8975 248.695 44.363C245.002 46.8285 240.679 49.9131 240.679 49.9131H396.508C396.508 49.9131 398.397 44.3737 391.62 40.6807Z" fill="#003983"/>
<path opacity="0.5" d="M391.62 40.6807C384.842 36.9771 381.768 40.0617 379.303 36.9771C376.837 33.8926 386.08 25.8876 367.562 17.8827C367.562 17.8827 366.335 0.634749 341.071 0.0157015C315.808 -0.603346 322.617 17.2636 315.84 21.5756C309.062 25.8876 307.216 19.1528 300.438 23.4221C293.661 27.6914 296.745 36.3581 291.206 37.5855C285.667 38.8129 278.259 32.0461 271.482 36.3581C264.704 40.6701 264.704 44.363 261.631 44.363C258.557 44.363 252.387 41.8975 248.695 44.363C245.002 46.8285 240.679 49.9131 240.679 49.9131H396.508C396.508 49.9131 398.397 44.3737 391.62 40.6807Z" fill="white"/>
<path d="M214.903 179.145C210.143 176.551 207.976 178.707 206.247 176.551C204.518 174.395 211.007 168.759 198.029 163.135C198.029 163.135 197.164 151.021 179.415 150.583C161.665 150.145 166.436 162.697 161.676 165.728C156.915 168.759 155.624 163.999 150.864 167.03C146.103 170.062 148.259 176.113 144.374 176.978C140.489 177.842 135.281 173.082 130.499 176.113C125.718 179.145 125.739 181.738 123.583 181.738C121.427 181.738 117.083 180.009 114.489 181.738C111.896 183.467 108.865 185.634 108.865 185.634H218.361C218.361 185.634 219.663 181.738 214.903 179.145Z" fill="white"/>
<path opacity="0.5" d="M214.903 179.145C210.143 176.551 207.976 178.707 206.247 176.551C204.518 174.395 211.007 168.759 198.029 163.135C198.029 163.135 197.164 151.021 179.415 150.583C161.665 150.145 166.436 162.697 161.676 165.728C156.915 168.759 155.624 163.999 150.864 167.03C146.103 170.062 148.259 176.113 144.374 176.978C140.489 177.842 135.281 173.082 130.499 176.113C125.718 179.145 125.739 181.738 123.583 181.738C121.427 181.738 117.083 180.009 114.489 181.738C111.896 183.467 108.865 185.634 108.865 185.634H218.361C218.361 185.634 219.663 181.738 214.903 179.145Z" fill="white"/>
<path d="M350.228 359.49H417.683C416.392 351.24 411.087 352.692 410.383 339.905C410.03 333.501 415.997 325.496 415.474 317.043C415.047 310.073 408.184 302.933 407.65 294.96C407.17 287.766 412.987 279.783 412.464 272.034C411.92 264.712 404.993 257.678 404.342 250.058C403.744 242.586 409.486 234.571 408.803 227.057C408.12 219.543 401.044 212.637 400.264 205.23C399.485 197.62 405.046 189.423 404.192 182.144C403.296 174.406 395.995 167.724 395.003 160.595C393.935 152.664 399.069 144.19 397.863 137.338C396.379 128.949 388.567 122.875 386.923 116.685C383.86 105.147 384.244 94.0363 380.626 93.3106C376.773 92.5421 375.887 103.439 372.962 115.618C371.489 121.733 363.858 127.935 362.599 136.334C361.585 143.133 366.985 151.405 366.099 159.303C365.31 166.38 358.19 173.178 357.497 180.874C356.846 188.11 362.62 196.083 362.054 203.65C361.499 211.004 354.583 218.017 354.124 225.488C353.665 232.959 359.599 240.772 359.194 248.147C358.778 255.704 352 262.844 351.648 270.113C351.285 277.808 357.358 285.568 357.059 292.697C356.728 300.606 350.047 307.843 349.801 314.759C349.502 323.148 355.661 330.886 355.469 337.279C355.063 351.155 348.713 348.262 348.489 359.426L350.228 359.49Z" fill="#003983"/>
<path d="M379.185 115.479V356.374" stroke="black" stroke-miterlimit="10"/>
<path d="M389.719 140.732L378.736 150.22L369.75 138.234" stroke="black" stroke-miterlimit="10"/>
<path d="M389.719 182.667L378.736 192.145L369.75 180.169" stroke="black" stroke-miterlimit="10"/>
<path d="M389.719 222.094L378.736 231.582L369.75 219.596" stroke="black" stroke-miterlimit="10"/>
<path d="M389.719 269.024L378.736 278.502L369.75 266.527" stroke="black" stroke-miterlimit="10"/>
<path d="M389.719 316.445L378.736 325.923L369.75 313.948" stroke="black" stroke-miterlimit="10"/>
<path d="M304.28 359.49H356.355C355.352 353.086 351.264 354.239 350.719 344.377C350.442 339.403 355.042 333.256 354.647 326.723C354.316 321.387 349.022 315.826 348.606 309.646C348.232 304.096 352.758 297.906 352.32 291.95C351.904 286.293 346.535 280.871 346.055 274.99C345.575 269.109 350.026 263.026 349.503 257.23C348.98 251.434 343.504 246.098 342.928 240.388C342.33 234.507 346.621 228.188 345.959 222.553C345.265 216.586 339.63 211.431 338.872 205.934C338.018 199.808 342.01 193.265 341.071 187.982C339.929 181.503 333.898 176.807 332.639 172.036C330.269 163.135 330.568 154.543 327.772 153.988C324.794 153.39 324.111 161.801 321.859 171.214C320.728 175.932 314.825 180.724 313.854 187.224C313.075 192.475 317.237 198.858 316.554 204.952C315.946 210.417 310.46 215.626 309.916 221.603C309.414 227.185 313.875 233.343 313.438 239.182C313.011 244.86 307.685 250.271 307.311 256.035C306.938 261.798 311.581 267.839 311.228 273.528C310.876 279.217 305.678 284.874 305.411 290.488C305.123 296.422 309.809 302.41 309.585 307.917C309.329 314.022 304.173 319.658 303.981 324.994C303.746 331.462 308.507 337.45 308.357 342.37C308.037 353.044 303.138 350.856 302.967 359.448L304.28 359.49Z" fill="#003983"/>
<path d="M326.641 171.14V357.089" stroke="black" stroke-miterlimit="10"/>
<path d="M334.763 190.629L326.288 197.95L319.351 188.697" stroke="black" stroke-miterlimit="10"/>
<path d="M334.763 222.99L326.288 230.312L319.351 221.069" stroke="black" stroke-miterlimit="10"/>
<path d="M334.763 253.43L326.288 260.752L319.351 251.509" stroke="black" stroke-miterlimit="10"/>
<path d="M334.763 289.656L326.288 296.977L319.351 287.724" stroke="black" stroke-miterlimit="10"/>
<path d="M334.763 326.265L326.288 333.576L319.351 324.333" stroke="black" stroke-miterlimit="10"/>
<path d="M257.863 358.989V143.198H269.251V358.989" fill="#2E353A"/>
<path d="M257.863 358.989V143.198H269.251V358.989" stroke="#2E353A" stroke-linecap="round" stroke-linejoin="round"/>
<path d="M252.174 358.989V143.198H263.562V358.989" fill="#003983"/>
<path d="M252.174 358.989V143.198H263.562V358.989" stroke="#2E353A" stroke-linecap="round" stroke-linejoin="round"/>
<g style="mix-blend-mode:multiply" opacity="0.3">
<path d="M263.562 143.198H252.174V168.813H263.562V143.198Z" fill="#2E353A"/>
</g>
<path d="M300.769 58.9531H216.386L253.166 149.291H337.559V95.7331C337.559 90.9022 336.608 86.1186 334.759 81.6556C332.91 77.1925 330.2 73.1374 326.783 69.722C323.367 66.3065 319.311 63.5975 314.847 61.7498C310.384 59.902 305.6 58.9517 300.769 58.9531Z" fill="#003983" stroke="#2E353A" stroke-linecap="round" stroke-linejoin="round"/>
<g style="mix-blend-mode:multiply" opacity="0.3">
<path d="M246.731 133.474L253.135 149.292H337.56V95.7339C337.56 94.9227 337.56 94.1115 337.475 93.311H246.752L246.731 133.474Z" fill="black"/>
</g>
<path d="M300.15 93.311H291.27" stroke="#2E353A" stroke-linecap="round" stroke-linejoin="round"/>
<path d="M337.474 93.311H310.599" stroke="#2E353A" stroke-linecap="round" stroke-linejoin="round"/>
<path d="M216.386 58.9531C226.144 58.9531 235.501 62.8293 242.401 69.7289C249.301 76.6285 253.177 85.9863 253.177 95.7438V149.302H179.595V95.7331C179.598 85.9775 183.476 76.6224 190.375 69.7251C197.274 62.8278 206.63 58.9531 216.386 58.9531Z" fill="#2E353A" stroke="#2E353A" stroke-linecap="round" stroke-linejoin="round"/>
<path d="M253.166 143.198H189.767V149.292H253.166V143.198Z" fill="#003983" stroke="#2E353A" stroke-linecap="round" stroke-linejoin="round"/>
<path d="M253.166 143.198H121.96V149.292H253.166V143.198Z" fill="#003983" stroke="#2E353A" stroke-linecap="round" stroke-linejoin="round"/>
<path opacity="0.3" d="M253.166 143.198H189.767V149.292H253.166V143.198Z" fill="black"/>
<path d="M306.255 37.1799H279.924V55.6767H306.255V37.1799Z" fill="#2E353A" stroke="#2E353A" stroke-linecap="round" stroke-linejoin="round"/>
<path d="M282.059 37.1799H276.37V94.8154H282.059V37.1799Z" fill="white" stroke="#2E353A" stroke-linecap="round" stroke-linejoin="round"/>
<path d="M279.209 102.639C282.746 102.639 285.613 99.7716 285.613 96.2348C285.613 92.698 282.746 89.8308 279.209 89.8308C275.672 89.8308 272.805 92.698 272.805 96.2348C272.805 99.7716 275.672 102.639 279.209 102.639Z" fill="#2E353A" stroke="#2E353A" stroke-linecap="round" stroke-linejoin="round"/>
<path d="M185.295 73.7461C200.152 81.2921 225.981 93.3849 249.804 99.4686" stroke="white" stroke-linecap="round" stroke-linejoin="round" stroke-dasharray="2 4"/>
<path d="M172.829 67.1824C172.829 67.1824 177.589 69.872 185.295 73.7891" stroke="#2E353A" stroke-linecap="round" stroke-linejoin="round" stroke-dasharray="2 4"/>
<path d="M167.482 66.7874L178.166 41.4065L100.689 22.5042L167.482 66.7874Z" fill="white" stroke="#2E353A" stroke-width="1.2629" stroke-linecap="round" stroke-linejoin="round"/>
<path d="M172.69 44.4803L167.482 66.7874L100.689 22.5042L172.69 44.4803Z" fill="#003983" stroke="#2E353A" stroke-width="1.2629" stroke-linecap="round" stroke-linejoin="round"/>
<path d="M172.69 44.4804L160.534 54.8974L100.689 22.5042L172.69 44.4804Z" fill="white" stroke="#2E353A" stroke-width="1.2629" stroke-linecap="round" stroke-linejoin="round"/>
<path d="M178.166 41.4065L188.988 37.0091L100.689 22.5042L178.166 41.4065Z" fill="white" stroke="#2E353A" stroke-width="1.2629" stroke-linecap="round" stroke-linejoin="round"/>
<path d="M152.432 62.8379L154.94 64.3748" stroke="#2E353A" stroke-linecap="round" stroke-linejoin="round"/>
<path d="M138.749 54.449L147.149 59.5935" stroke="#2E353A" stroke-linecap="round" stroke-linejoin="round"/>
<path d="M129.314 115.372V87.8455L208.061 100.504L129.314 115.372Z" fill="white" stroke="#2E353A" stroke-width="1.2629" stroke-linecap="round" stroke-linejoin="round"/>
<path d="M133.167 92.7979L129.314 115.372L208.061 100.504L133.167 92.7979Z" fill="#003983" stroke="#2E353A" stroke-width="1.2629" stroke-linecap="round" stroke-linejoin="round"/>
<path d="M133.167 92.7979L140.329 107.111L208.061 100.504L133.167 92.7979Z" fill="white" stroke="#2E353A" stroke-width="1.2629" stroke-linecap="round" stroke-linejoin="round"/>
<path d="M129.314 87.8456L121.053 79.5845L208.061 100.504L129.314 87.8456Z" fill="white" stroke="#2E353A" stroke-width="1.2629" stroke-linecap="round" stroke-linejoin="round"/>
<path d="M157.512 114.86L164.343 113.472" stroke="#2E353A" stroke-linecap="round" stroke-linejoin="round"/>
<path d="M133.519 119.737L150.693 116.247" stroke="#2E353A" stroke-linecap="round" stroke-linejoin="round"/>
<path d="M119.826 113.674C119.826 113.674 57.9208 124.348 46.1803 179.848C34.4397 235.349 96.3445 238.551 107.018 211.868C117.691 185.185 70.7287 174.512 60.0555 200.128C49.3822 225.743 81.4019 269.504 125.162 271.638C161.526 273.41 263.477 230.963 326.886 220.236C326.886 220.236 373.849 207.236 446.427 210.086" stroke="#939A9F" stroke-linecap="round" stroke-linejoin="round" stroke-dasharray="2 4"/>
<path d="M425.433 287.649H443.225" stroke="#2E353A" stroke-linecap="round" stroke-linejoin="round"/>
<path d="M425.433 313.969H443.225" stroke="#2E353A" stroke-linecap="round" stroke-linejoin="round"/>
<path d="M1 313.379H513.38V288.272H1" fill="white"/>
<path d="M1 313.379H513.38V288.272H1" stroke="#2E353A" stroke-linecap="round" stroke-linejoin="round"/>
<path d="M76.6953 359.159V233.834C76.6955 233.527 76.7581 233.223 76.8791 232.94C77.0002 232.658 77.1773 232.403 77.3998 232.19L87.1337 223.022C87.5721 222.612 88.1547 222.392 88.7545 222.41C89.3543 222.428 89.9227 222.683 90.3357 223.118L98.8743 232.201C99.2617 232.624 99.4785 233.175 99.4827 233.749V359.159" fill="#2E353A"/>
<path d="M76.6953 359.159V233.834C76.6955 233.527 76.7581 233.223 76.8791 232.94C77.0002 232.658 77.1773 232.403 77.3998 232.19L87.1337 223.022C87.5721 222.612 88.1547 222.392 88.7545 222.41C89.3543 222.428 89.9227 222.683 90.3357 223.118L98.8743 232.201C99.2617 232.624 99.4785 233.175 99.4827 233.749V359.159" stroke="#2E353A" stroke-linecap="round" stroke-linejoin="round"/>
<path d="M73.9307 360.227V233.834C73.9304 233.526 73.9937 233.221 74.1167 232.938C74.2398 232.655 74.4199 232.401 74.6458 232.19L84.3798 223.022C84.5962 222.818 84.8507 222.658 85.1289 222.553C85.407 222.447 85.7033 222.397 86.0007 222.406C86.2981 222.415 86.5908 222.482 86.8621 222.605C87.1334 222.727 87.378 222.901 87.5817 223.118L96.1203 232.201C96.5122 232.621 96.7297 233.174 96.7287 233.749V360.227" fill="white"/>
<path d="M73.9307 360.227V233.834C73.9304 233.526 73.9937 233.221 74.1167 232.938C74.2398 232.655 74.4199 232.401 74.6458 232.19L84.3798 223.022C84.5962 222.818 84.8507 222.658 85.1289 222.553C85.407 222.447 85.7033 222.397 86.0007 222.406C86.2981 222.415 86.5908 222.482 86.8621 222.605C87.1334 222.727 87.378 222.901 87.5817 223.118L96.1203 232.201C96.5122 232.621 96.7297 233.174 96.7287 233.749V360.227" stroke="#2E353A" stroke-linecap="round" stroke-linejoin="round"/>
<path d="M158.773 359.159V233.834C158.773 233.527 158.835 233.223 158.957 232.94C159.078 232.658 159.255 232.403 159.477 232.19L169.222 223.022C169.438 222.818 169.693 222.658 169.971 222.553C170.249 222.447 170.545 222.397 170.843 222.406C171.14 222.415 171.433 222.482 171.704 222.605C171.975 222.727 172.22 222.901 172.424 223.118L180.962 232.201C181.354 232.621 181.572 233.174 181.571 233.749V359.159" fill="#2E353A"/>
<path d="M158.773 359.159V233.834C158.773 233.527 158.835 233.223 158.957 232.94C159.078 232.658 159.255 232.403 159.477 232.19L169.222 223.022C169.438 222.818 169.693 222.658 169.971 222.553C170.249 222.447 170.545 222.397 170.843 222.406C171.14 222.415 171.433 222.482 171.704 222.605C171.975 222.727 172.22 222.901 172.424 223.118L180.962 232.201C181.354 232.621 181.572 233.174 181.571 233.749V359.159" stroke="#2E353A" stroke-linecap="round" stroke-linejoin="round"/>
<path d="M11.6746 359.932V234.607C11.6748 234.3 11.7373 233.996 11.8584 233.713C11.9794 233.431 12.1565 233.176 12.379 232.964L22.1237 223.795C22.34 223.591 22.5946 223.432 22.8727 223.326C23.1509 223.22 23.4472 223.17 23.7446 223.179C24.042 223.188 24.3347 223.256 24.606 223.378C24.8773 223.5 25.1219 223.675 25.3256 223.891L33.8642 232.974C34.2561 233.394 34.4736 233.948 34.4726 234.522V359.932" fill="#2E353A"/>
<path d="M11.6746 359.932V234.607C11.6748 234.3 11.7373 233.996 11.8584 233.713C11.9794 233.431 12.1565 233.176 12.379 232.964L22.1237 223.795C22.34 223.591 22.5946 223.432 22.8727 223.326C23.1509 223.22 23.4472 223.17 23.7446 223.179C24.042 223.188 24.3347 223.256 24.606 223.378C24.8773 223.5 25.1219 223.675 25.3256 223.891L33.8642 232.974C34.2561 233.394 34.4736 233.948 34.4726 234.522V359.932" stroke="#2E353A" stroke-linecap="round" stroke-linejoin="round"/>
<path d="M156.467 360.227V233.834C156.467 233.526 156.53 233.221 156.653 232.938C156.776 232.655 156.957 232.401 157.182 232.19L166.916 223.022C167.355 222.612 167.937 222.392 168.537 222.41C169.137 222.428 169.705 222.683 170.118 223.118L178.657 232.201C179.052 232.62 179.273 233.173 179.276 233.749V360.227" fill="white"/>
<path d="M156.467 360.227V233.834C156.467 233.526 156.53 233.221 156.653 232.938C156.776 232.655 156.957 232.401 157.182 232.19L166.916 223.022C167.355 222.612 167.937 222.392 168.537 222.41C169.137 222.428 169.705 222.683 170.118 223.118L178.657 232.201C179.052 232.62 179.273 233.173 179.276 233.749V360.227" stroke="#2E353A" stroke-linecap="round" stroke-linejoin="round"/>
<path d="M9.36914 361V234.608C9.36883 234.299 9.43218 233.994 9.55523 233.711C9.67827 233.428 9.85837 233.174 10.0842 232.964L19.8182 223.796C20.2566 223.386 20.8392 223.166 21.439 223.184C22.0388 223.202 22.6072 223.456 23.0202 223.892L31.5588 232.975C31.9536 233.393 32.1749 233.947 32.1778 234.522V361" fill="white"/>
<path d="M9.36914 361V234.608C9.36883 234.299 9.43218 233.994 9.55523 233.711C9.67827 233.428 9.85837 233.174 10.0842 232.964L19.8182 223.796C20.2566 223.386 20.8392 223.166 21.439 223.184C22.0388 223.202 22.6072 223.456 23.0202 223.892L31.5588 232.975C31.9536 233.393 32.1749 233.947 32.1778 234.522V361" stroke="#2E353A" stroke-linecap="round" stroke-linejoin="round"/>
<path d="M241.309 359.159V233.834C241.308 233.526 241.372 233.221 241.495 232.938C241.618 232.655 241.798 232.401 242.024 232.19L251.758 223.022C252.196 222.612 252.779 222.392 253.378 222.41C253.978 222.428 254.547 222.683 254.96 223.118L263.498 232.201C263.893 232.62 264.114 233.173 264.117 233.749V360.227" fill="#2E353A"/>
<path d="M241.309 359.159V233.834C241.308 233.526 241.372 233.221 241.495 232.938C241.618 232.655 241.798 232.401 242.024 232.19L251.758 223.022C252.196 222.612 252.779 222.392 253.378 222.41C253.978 222.428 254.547 222.683 254.96 223.118L263.498 232.201C263.893 232.62 264.114 233.173 264.117 233.749V360.227" stroke="#2E353A" stroke-linecap="round" stroke-linejoin="round"/>
<path d="M239.014 360.227V233.834C239.014 233.527 239.076 233.223 239.197 232.94C239.319 232.658 239.496 232.403 239.718 232.19L249.463 223.022C249.679 222.818 249.934 222.658 250.212 222.553C250.49 222.447 250.786 222.397 251.084 222.406C251.381 222.415 251.674 222.482 251.945 222.605C252.216 222.727 252.461 222.901 252.665 223.118L261.203 232.201C261.595 232.621 261.813 233.174 261.812 233.749V360.227" fill="white"/>
<path d="M239.014 360.227V233.834C239.014 233.527 239.076 233.223 239.197 232.94C239.319 232.658 239.496 232.403 239.718 232.19L249.463 223.022C249.679 222.818 249.934 222.658 250.212 222.553C250.49 222.447 250.786 222.397 251.084 222.406C251.381 222.415 251.674 222.482 251.945 222.605C252.216 222.727 252.461 222.901 252.665 223.118L261.203 232.201C261.595 232.621 261.813 233.174 261.812 233.749V360.227" stroke="#2E353A" stroke-linecap="round" stroke-linejoin="round"/>
<path d="M323.856 359.159V233.834C323.856 233.527 323.918 233.223 324.04 232.94C324.161 232.658 324.338 232.403 324.56 232.19L334.294 223.022C334.732 222.612 335.315 222.392 335.915 222.41C336.515 222.428 337.083 222.683 337.496 223.118L346.035 232.201C346.422 232.624 346.639 233.175 346.643 233.749V359.159" fill="#2E353A"/>
<path d="M323.856 359.159V233.834C323.856 233.527 323.918 233.223 324.04 232.94C324.161 232.658 324.338 232.403 324.56 232.19L334.294 223.022C334.732 222.612 335.315 222.392 335.915 222.41C336.515 222.428 337.083 222.683 337.496 223.118L346.035 232.201C346.422 232.624 346.639 233.175 346.643 233.749V359.159" stroke="#2E353A" stroke-linecap="round" stroke-linejoin="round"/>
<path d="M478.489 359.933V234.608C478.489 234.3 478.552 233.996 478.673 233.714C478.794 233.431 478.971 233.176 479.194 232.964L488.928 223.796C489.366 223.386 489.949 223.166 490.548 223.184C491.148 223.202 491.717 223.456 492.13 223.892L500.668 232.975C501.056 233.397 501.272 233.949 501.277 234.522V359.933" fill="#2E353A"/>
<path d="M478.489 359.933V234.608C478.489 234.3 478.552 233.996 478.673 233.714C478.794 233.431 478.971 233.176 479.194 232.964L488.928 223.796C489.366 223.386 489.949 223.166 490.548 223.184C491.148 223.202 491.717 223.456 492.13 223.892L500.668 232.975C501.056 233.397 501.272 233.949 501.277 234.522V359.933" stroke="#2E353A" stroke-linecap="round" stroke-linejoin="round"/>
<path d="M321.55 360.227V233.834C321.55 233.526 321.613 233.221 321.736 232.938C321.859 232.655 322.039 232.401 322.265 232.19L331.999 223.022C332.216 222.818 332.47 222.658 332.748 222.553C333.026 222.447 333.323 222.397 333.62 222.406C333.917 222.415 334.21 222.482 334.482 222.605C334.753 222.727 334.997 222.901 335.201 223.118L343.74 232.201C344.132 232.621 344.349 233.174 344.348 233.749V360.227" fill="white"/>
<path d="M321.55 360.227V233.834C321.55 233.526 321.613 233.221 321.736 232.938C321.859 232.655 322.039 232.401 322.265 232.19L331.999 223.022C332.216 222.818 332.47 222.658 332.748 222.553C333.026 222.447 333.323 222.397 333.62 222.406C333.917 222.415 334.21 222.482 334.482 222.605C334.753 222.727 334.997 222.901 335.201 223.118L343.74 232.201C344.132 232.621 344.349 233.174 344.348 233.749V360.227" stroke="#2E353A" stroke-linecap="round" stroke-linejoin="round"/>
<path d="M476.184 361V234.607C476.183 234.299 476.247 233.994 476.37 233.711C476.493 233.428 476.673 233.174 476.899 232.964L486.633 223.795C486.849 223.591 487.104 223.432 487.382 223.326C487.66 223.22 487.956 223.17 488.254 223.179C488.551 223.188 488.844 223.256 489.115 223.378C489.386 223.5 489.631 223.675 489.835 223.891L498.373 232.974C498.765 233.394 498.983 233.948 498.982 234.522V361" fill="white"/>
<path d="M476.184 361V234.607C476.183 234.299 476.247 233.994 476.37 233.711C476.493 233.428 476.673 233.174 476.899 232.964L486.633 223.795C486.849 223.591 487.104 223.432 487.382 223.326C487.66 223.22 487.956 223.17 488.254 223.179C488.551 223.188 488.844 223.256 489.115 223.378C489.386 223.5 489.631 223.675 489.835 223.891L498.373 232.974C498.765 233.394 498.983 233.948 498.982 234.522V361" stroke="#2E353A" stroke-linecap="round" stroke-linejoin="round"/>
<path d="M406.392 359.159V233.834C406.392 233.527 406.454 233.223 406.575 232.94C406.697 232.658 406.874 232.403 407.096 232.19L416.841 223.022C417.057 222.818 417.312 222.658 417.59 222.553C417.868 222.447 418.164 222.397 418.462 222.406C418.759 222.415 419.052 222.482 419.323 222.605C419.594 222.727 419.839 222.901 420.043 223.118L428.581 232.201C428.973 232.621 429.191 233.174 429.19 233.749V359.159" fill="#2E353A"/>
<path d="M406.392 359.159V233.834C406.392 233.527 406.454 233.223 406.575 232.94C406.697 232.658 406.874 232.403 407.096 232.19L416.841 223.022C417.057 222.818 417.312 222.658 417.59 222.553C417.868 222.447 418.164 222.397 418.462 222.406C418.759 222.415 419.052 222.482 419.323 222.605C419.594 222.727 419.839 222.901 420.043 223.118L428.581 232.201C428.973 232.621 429.191 233.174 429.19 233.749V359.159" stroke="#2E353A" stroke-linecap="round" stroke-linejoin="round"/>
<path d="M404.086 360.227V233.834C404.086 233.526 404.149 233.221 404.272 232.938C404.395 232.655 404.575 232.401 404.801 232.19L414.535 223.022C414.973 222.612 415.556 222.392 416.156 222.41C416.756 222.428 417.324 222.683 417.737 223.118L426.276 232.201C426.67 232.62 426.892 233.173 426.895 233.749V360.227" fill="white"/>
<path d="M404.086 360.227V233.834C404.086 233.526 404.149 233.221 404.272 232.938C404.395 232.655 404.575 232.401 404.801 232.19L414.535 223.022C414.973 222.612 415.556 222.392 416.156 222.41C416.756 222.428 417.324 222.683 417.737 223.118L426.276 232.201C426.67 232.62 426.892 233.173 426.895 233.749V360.227" stroke="#2E353A" stroke-linecap="round" stroke-linejoin="round"/>
<path d="M87.5713 223.118V232.254" stroke="#2E353A" stroke-linecap="round" stroke-linejoin="round"/>
<path d="M91.2324 227.836V249.46" stroke="#2E353A" stroke-linecap="round" stroke-linejoin="round"/>
<path d="M160.96 229.607V256.963" stroke="#2E353A" stroke-linecap="round" stroke-linejoin="round"/>
<path d="M13.8625 230.381V257.736" stroke="#2E353A" stroke-linecap="round" stroke-linejoin="round"/>
<path d="M164.493 226.075V237.986" stroke="#2E353A" stroke-linecap="round" stroke-linejoin="round"/>
<path d="M17.3953 226.848V238.759" stroke="#2E353A" stroke-linecap="round" stroke-linejoin="round"/>
<path d="M249.463 223.022V249.908" stroke="#2E353A" stroke-linecap="round" stroke-linejoin="round"/>
<path d="M254.533 225.188V264.914" stroke="#2E353A" stroke-linecap="round" stroke-linejoin="round"/>
<path d="M325.585 229.607V259.61" stroke="#2E353A" stroke-linecap="round" stroke-linejoin="round"/>
<path d="M480.218 230.381V260.383" stroke="#2E353A" stroke-linecap="round" stroke-linejoin="round"/>
<path d="M337.058 226.075V233.578" stroke="#2E353A" stroke-linecap="round" stroke-linejoin="round"/>
<path d="M491.692 226.848V234.351" stroke="#2E353A" stroke-linecap="round" stroke-linejoin="round"/>
<path d="M411.643 225.626V241.519" stroke="#2E353A" stroke-linecap="round" stroke-linejoin="round"/>
<path d="M421.355 227.398V273.293" stroke="#2E353A" stroke-linecap="round" stroke-linejoin="round"/>
<path d="M403.701 294.479H393.989" stroke="#2E353A" stroke-linecap="round" stroke-linejoin="round"/>
<path d="M403.702 301.983H369.718" stroke="#2E353A" stroke-linecap="round" stroke-linejoin="round"/>
<path d="M277.032 301.983H261.588" stroke="#2E353A" stroke-linecap="round" stroke-linejoin="round"/>
<path d="M195.83 301.983H180.385" stroke="#2E353A" stroke-linecap="round" stroke-linejoin="round"/>
<path d="M73.5785 298.012H58.1343" stroke="#2E353A" stroke-linecap="round" stroke-linejoin="round"/>
<path d="M42.846 298.501H34.4768" stroke="#2E353A" stroke-linecap="round" stroke-linejoin="round"/>
<path d="M73.5787 305.067H67.3989" stroke="#2E353A" stroke-linecap="round" stroke-linejoin="round"/>
<path d="M9.03967 305.94H2.85986" stroke="#2E353A" stroke-linecap="round" stroke-linejoin="round"/>
<path d="M269.091 298.012H261.588" stroke="#2E353A" stroke-linecap="round" stroke-linejoin="round"/>
<path d="M187.003 306.391H179.5" stroke="#2E353A" stroke-linecap="round" stroke-linejoin="round"/>
<path d="M155.666 306.391H148.163" stroke="#2E353A" stroke-linecap="round" stroke-linejoin="round"/>
<path d="M433.704 301.983H427.086" stroke="#2E353A" stroke-linecap="round" stroke-linejoin="round"/>
<path d="M442.531 301.983H438.56" stroke="#2E353A" stroke-linecap="round" stroke-linejoin="round"/>
<path d="M96.3448 256.099C96.3448 256.099 93.6765 279.035 90.4745 302.506C87.2726 325.976 93.1428 349.991 94.7438 352.126" stroke="#2E353A" stroke-linecap="round" stroke-linejoin="round"/>
<path d="M85.7886 302.527C86.3009 297.948 86.7278 295.056 86.7278 295.056" stroke="#2E353A" stroke-linecap="round" stroke-linejoin="round"/>
<path d="M93.6655 349.457C93.6655 349.457 84.0596 347.323 84.0596 330.245C84.0596 323.233 84.5079 316.05 85.0415 309.966" stroke="#2E353A" stroke-linecap="round" stroke-linejoin="round"/>
<path d="M174.259 228.882C174.259 228.882 176.394 230.483 172.658 248.627C168.923 266.772 169.456 293.455 174.259 308.397" stroke="#2E353A" stroke-linecap="round" stroke-linejoin="round"/>
<path d="M27.1611 229.655C27.1611 229.655 29.2958 231.256 25.5602 249.401C21.8245 267.545 22.3582 294.228 27.1611 309.171" stroke="#2E353A" stroke-linecap="round" stroke-linejoin="round"/>
<path d="M179.596 262.502C179.596 262.502 174.259 278.512 177.995 300.926" stroke="#2E353A" stroke-linecap="round" stroke-linejoin="round"/>
<path d="M32.498 263.276C32.498 263.276 27.1614 279.285 30.897 301.699" stroke="#2E353A" stroke-linecap="round" stroke-linejoin="round"/>
<path d="M240.433 272.631C240.433 272.631 243.102 288.108 245.77 304.107C248.438 320.106 246.304 342.53 244.169 348.39C242.034 354.25 239.9 359.063 239.9 359.063" stroke="#2E353A" stroke-linecap="round" stroke-linejoin="round"/>
<path d="M250.488 351.218C248.108 358.519 245.151 349.991 245.151 349.991" stroke="#2E353A" stroke-linecap="round" stroke-linejoin="round"/>
<path d="M250.391 296.657C250.391 296.657 255.418 322.604 252.579 342.136" stroke="#2E353A" stroke-linecap="round" stroke-linejoin="round"/>
<path d="M239.366 305.195C239.366 305.195 244.702 316.402 239.899 327.075" stroke="#2E353A" stroke-linecap="round" stroke-linejoin="round"/>
<path d="M338.947 306.775C339.661 310.038 340.599 313.247 341.754 316.381" stroke="#2E353A" stroke-linecap="round" stroke-linejoin="round"/>
<path d="M493.58 307.548C494.294 310.811 495.232 314.021 496.387 317.154" stroke="#2E353A" stroke-linecap="round" stroke-linejoin="round"/>
<path d="M343.355 251.296C339.969 262.045 337.82 273.146 336.951 284.383C336.632 290.068 336.951 295.771 337.901 301.385" stroke="#2E353A" stroke-linecap="round" stroke-linejoin="round"/>
<path d="M497.989 252.069C494.602 262.818 492.454 273.919 491.585 285.156C491.266 290.841 491.585 296.544 492.535 302.158" stroke="#2E353A" stroke-linecap="round" stroke-linejoin="round"/>
<path d="M333.216 300.371C333.216 300.371 338.019 318.516 340.687 324.92C343.355 331.323 342.288 346.789 339.086 354.26" stroke="#2E353A" stroke-linecap="round" stroke-linejoin="round"/>
<path d="M487.849 301.144C487.849 301.144 492.652 319.289 495.32 325.693C497.989 332.097 496.921 347.562 493.719 355.033" stroke="#2E353A" stroke-linecap="round" stroke-linejoin="round"/>
<path d="M405.239 259.301C405.239 259.301 415.912 278.512 405.773 309.988" stroke="#2E353A" stroke-linecap="round" stroke-linejoin="round"/>
<path d="M415.047 292.11C415.112 298.108 414.578 305.708 412.176 312.112C407.373 324.92 405.239 329.189 405.239 329.189" stroke="#2E353A" stroke-linecap="round" stroke-linejoin="round"/>
<path d="M414.311 281.715C414.311 281.715 414.663 284.009 414.877 287.542" stroke="#2E353A" stroke-linecap="round" stroke-linejoin="round"/>
</svg>
