<svg width="18" height="18" viewBox="0 0 18 18" fill="none" xmlns="http://www.w3.org/2000/svg">
<g clip-path="url(#clip0)">
<path d="M18.0003 9.05524C18.0003 4.05349 13.9705 -0.00100708 9.0003 -0.00100708C4.0278 0.00011792 -0.00195312 4.05349 -0.00195312 9.05637C-0.00195312 13.5755 3.2898 17.3217 7.5918 18.0012V11.6731H5.30805V9.05637H7.59405V7.05949C7.59405 4.79037 8.93842 3.53712 10.9938 3.53712C11.9793 3.53712 13.0087 3.71374 13.0087 3.71374V5.94124H11.8735C10.7564 5.94124 10.4077 6.63987 10.4077 7.35649V9.05524H12.9029L12.5047 11.672H10.4065V18.0001C14.7085 17.3206 18.0003 13.5744 18.0003 9.05524Z" fill="url(#paint0_linear)"/>
</g>
<defs>
<linearGradient id="paint0_linear" x1="1.81784e-07" y1="-1.38318e-07" x2="16" y2="18" gradientUnits="userSpaceOnUse">
<stop stop-color="#00FFFF"/>
<stop offset="1" stop-color="#FF00FF"/>
</linearGradient>
<clipPath id="clip0">
<rect width="18" height="18" fill="white"/>
</clipPath>
</defs>
</svg>
