<svg width="19" height="19" viewBox="0 0 19 19" fill="none" xmlns="http://www.w3.org/2000/svg">
<path d="M6.83599 15.1805C6.83599 15.2549 6.75253 15.3145 6.64728 15.3145C6.52753 15.3256 6.44406 15.2661 6.44406 15.1805C6.44406 15.106 6.52753 15.0465 6.63277 15.0465C6.74164 15.0353 6.83599 15.0949 6.83599 15.1805ZM5.70737 15.013C5.68196 15.0874 5.75454 15.173 5.86341 15.1954C5.95777 15.2326 6.06664 15.1954 6.08841 15.1209C6.11019 15.0465 6.04124 14.9609 5.93236 14.9274C5.83801 14.9013 5.73277 14.9385 5.70737 15.013ZM7.3114 14.9497C7.20616 14.9758 7.13357 15.0465 7.14446 15.1321C7.15535 15.2065 7.2497 15.2549 7.35857 15.2288C7.46382 15.2028 7.5364 15.1321 7.52551 15.0576C7.51462 14.9869 7.41664 14.9385 7.3114 14.9497ZM9.6993 0.68689C4.66583 0.68689 0.81543 4.60618 0.81543 9.76864C0.81543 13.8964 3.34849 17.4286 6.96664 18.6717C7.43116 18.7573 7.59446 18.4633 7.59446 18.2214C7.59446 17.9906 7.58357 16.7177 7.58357 15.936C7.58357 15.936 5.04325 16.4943 4.50978 14.8269C4.50978 14.8269 4.09607 13.7438 3.50091 13.4646C3.50091 13.4646 2.66986 12.8802 3.55898 12.8914C3.55898 12.8914 4.46261 12.9659 4.95978 13.8517C5.75454 15.2884 7.0864 14.8753 7.60535 14.6296C7.68882 14.0341 7.9247 13.6209 8.18599 13.3753C6.15736 13.1445 4.11059 12.843 4.11059 9.26244C4.11059 8.23888 4.3864 7.72524 4.96704 7.07017C4.87269 6.82823 4.56422 5.83073 5.0614 4.54291C5.81986 4.30098 7.56543 5.54786 7.56543 5.54786C8.29124 5.33942 9.07148 5.23148 9.84446 5.23148C10.6174 5.23148 11.3977 5.33942 12.1235 5.54786C12.1235 5.54786 13.8691 4.29726 14.6275 4.54291C15.1247 5.83445 14.8162 6.82823 14.7219 7.07017C15.3025 7.72896 15.6582 8.2426 15.6582 9.26244C15.6582 12.8542 13.5207 13.1408 11.492 13.3753C11.8259 13.6693 12.109 14.2276 12.109 15.1023C12.109 16.3566 12.0981 17.9087 12.0981 18.2139C12.0981 18.4558 12.265 18.7499 12.7259 18.6643C16.3549 17.4286 18.8154 13.8964 18.8154 9.76864C18.8154 4.60618 14.7328 0.68689 9.6993 0.68689ZM4.34285 13.5242C4.29567 13.5614 4.30656 13.647 4.36825 13.7177C4.42632 13.7773 4.50978 13.8033 4.55696 13.7549C4.60414 13.7177 4.59325 13.6321 4.53156 13.5614C4.47349 13.5018 4.39003 13.4758 4.34285 13.5242ZM3.95091 13.2227C3.92551 13.2711 3.9618 13.3306 4.03438 13.3678C4.09245 13.4051 4.16503 13.3939 4.19043 13.3418C4.21583 13.2934 4.17954 13.2338 4.10696 13.1966C4.03438 13.1743 3.97632 13.1855 3.95091 13.2227ZM5.12672 14.5477C5.06866 14.5961 5.09043 14.7078 5.1739 14.7785C5.25737 14.8641 5.36261 14.8753 5.40978 14.8157C5.45696 14.7673 5.43519 14.6557 5.36261 14.5849C5.28277 14.4993 5.1739 14.4882 5.12672 14.5477ZM4.71301 14.0006C4.65495 14.0378 4.65495 14.1346 4.71301 14.2202C4.77107 14.3058 4.86906 14.343 4.91624 14.3058C4.9743 14.2574 4.9743 14.1606 4.91624 14.075C4.86543 13.9894 4.77107 13.9522 4.71301 14.0006Z" fill="url(#paint0_linear)"/>
<defs>
<linearGradient id="paint0_linear" x1="-3" y1="1" x2="19" y2="19" gradientUnits="userSpaceOnUse">
<stop stop-color="#00FFFF"/>
<stop offset="1" stop-color="#FF00FF"/>
</linearGradient>
</defs>
</svg>
