<svg width="40" height="40" viewBox="0 0 40 40" fill="none" xmlns="http://www.w3.org/2000/svg">
<path d="M33.3334 30H30V15.4166L20 21.6666L10 15.4166V30H6.66671V9.99996H8.66671L20 17.0833L31.3334 9.99996H33.3334V30ZM33.3334 6.66663H6.66671C4.81671 6.66663 3.33337 8.14996 3.33337 9.99996V30C3.33337 30.884 3.68456 31.7319 4.30968 32.357C4.93481 32.9821 5.78265 33.3333 6.66671 33.3333H33.3334C34.2174 33.3333 35.0653 32.9821 35.6904 32.357C36.3155 31.7319 36.6667 30.884 36.6667 30V9.99996C36.6667 9.1159 36.3155 8.26806 35.6904 7.64294C35.0653 7.01782 34.2174 6.66663 33.3334 6.66663Z" fill="url(#paint0_linear)"/>
<defs>
<linearGradient id="paint0_linear" x1="3" y1="7" x2="32.5" y2="33" gradientUnits="userSpaceOnUse">
<stop stop-color="#FF00FF"/>
<stop offset="1" stop-color="#00FFFF"/>
</linearGradient>
</defs>
</svg>
