<svg width="19" height="19" viewBox="0 0 19 19" fill="none" xmlns="http://www.w3.org/2000/svg">
<path d="M9.8189 5.64397C7.58296 5.64397 5.77944 7.44748 5.77944 9.68342C5.77944 11.9194 7.58296 13.7229 9.8189 13.7229C12.0548 13.7229 13.8583 11.9194 13.8583 9.68342C13.8583 7.44748 12.0548 5.64397 9.8189 5.64397ZM9.8189 12.3096C8.37397 12.3096 7.19272 11.1319 7.19272 9.68342C7.19272 8.23498 8.37046 7.05725 9.8189 7.05725C11.2673 7.05725 12.4451 8.23498 12.4451 9.68342C12.4451 11.1319 11.2638 12.3096 9.8189 12.3096ZM14.9658 5.47874C14.9658 6.00256 14.5439 6.42092 14.0236 6.42092C13.4998 6.42092 13.0814 5.99905 13.0814 5.47874C13.0814 4.95842 13.5033 4.53655 14.0236 4.53655C14.5439 4.53655 14.9658 4.95842 14.9658 5.47874ZM17.6412 6.43499C17.5814 5.17288 17.2931 4.05491 16.3685 3.13381C15.4474 2.21272 14.3294 1.92444 13.0673 1.86116C11.7666 1.78733 7.86772 1.78733 6.56694 1.86116C5.30835 1.92092 4.19038 2.2092 3.26577 3.1303C2.34116 4.05139 2.0564 5.16936 1.99312 6.43147C1.91929 7.73225 1.91929 11.6311 1.99312 12.9319C2.05288 14.194 2.34116 15.3119 3.26577 16.233C4.19038 17.1541 5.30483 17.4424 6.56694 17.5057C7.86772 17.5795 11.7666 17.5795 13.0673 17.5057C14.3294 17.4459 15.4474 17.1576 16.3685 16.233C17.2896 15.3119 17.5779 14.194 17.6412 12.9319C17.715 11.6311 17.715 7.73577 17.6412 6.43499ZM15.9607 14.3276C15.6865 15.0166 15.1556 15.5475 14.463 15.8252C13.4259 16.2365 10.965 16.1416 9.8189 16.1416C8.6728 16.1416 6.20835 16.233 5.17476 15.8252C4.48569 15.551 3.95483 15.0201 3.6771 14.3276C3.26577 13.2905 3.36069 10.8295 3.36069 9.68342C3.36069 8.53733 3.26929 6.07288 3.6771 5.03928C3.95132 4.35022 4.48218 3.81936 5.17476 3.54163C6.21186 3.1303 8.6728 3.22522 9.8189 3.22522C10.965 3.22522 13.4294 3.13381 14.463 3.54163C15.1521 3.81584 15.683 4.3467 15.9607 5.03928C16.372 6.07639 16.2771 8.53733 16.2771 9.68342C16.2771 10.8295 16.372 13.294 15.9607 14.3276Z" fill="url(#paint0_linear)"/>
<defs>
<linearGradient id="paint0_linear" x1="4.5" y1="3.5" x2="18" y2="18" gradientUnits="userSpaceOnUse">
<stop stop-color="#00FFFF"/>
<stop offset="1" stop-color="#FF00FF"/>
</linearGradient>
</defs>
</svg>
