<svg width="21" height="21" viewBox="0 0 21 21" fill="none" xmlns="http://www.w3.org/2000/svg">
<g clip-path="url(#clip0)">
<path d="M10.8153 1.08691C5.51333 1.08691 1.21533 5.38491 1.21533 10.6869C1.21533 15.9889 5.51333 20.2869 10.8153 20.2869C16.1173 20.2869 20.4153 15.9889 20.4153 10.6869C20.4153 5.38491 16.1173 1.08691 10.8153 1.08691ZM8.46533 14.6659H6.52133V8.40991H8.46533V14.6659ZM7.48133 7.64191C6.86733 7.64191 6.47033 7.20691 6.47033 6.66891C6.47033 6.11991 6.87933 5.69791 7.50633 5.69791C8.13333 5.69791 8.51733 6.11991 8.52933 6.66891C8.52933 7.20691 8.13333 7.64191 7.48133 7.64191ZM15.5653 14.6659H13.6213V11.1989C13.6213 10.3919 13.3393 9.84391 12.6363 9.84391C12.0993 9.84391 11.7803 10.2149 11.6393 10.5719C11.5873 10.6989 11.5743 10.8789 11.5743 11.0579V14.6649H9.62933V10.4049C9.62933 9.62391 9.60433 8.97091 9.57833 8.40891H11.2673L11.3563 9.27791H11.3953C11.6513 8.86991 12.2783 8.26791 13.3273 8.26791C14.6063 8.26791 15.5653 9.12491 15.5653 10.9669V14.6659Z" fill="url(#paint0_linear)"/>
</g>
<defs>
<linearGradient id="paint0_linear" x1="1" y1="1" x2="20" y2="20" gradientUnits="userSpaceOnUse">
<stop stop-color="#00FFFF"/>
<stop offset="1" stop-color="#FF00FF"/>
</linearGradient>
<clipPath id="clip0">
<rect width="20" height="20" fill="white" transform="translate(0.81543 0.68689)"/>
</clipPath>
</defs>
</svg>
