<svg width="40" height="36" viewBox="0 0 30 26" fill="none" xmlns="http://www.w3.org/2000/svg">
<g clip-path="url(#clip0)">
<path d="M2.79643 0H26.8296C27.5713 0 28.2826 0.294623 28.807 0.819055C29.3314 1.34349 29.6261 2.05477 29.6261 2.79643C29.6261 3.53809 29.3314 4.24937 28.807 4.7738C28.2826 5.29823 27.5713 5.59286 26.8296 5.59286H2.79643C2.05477 5.59286 1.34349 5.29823 0.819055 4.7738C0.294623 4.24937 0 3.53809 0 2.79643C0 2.05477 0.294623 1.34349 0.819055 0.819055C1.34349 0.294623 2.05477 0 2.79643 0V0Z" fill="#0572FF"/>
<path d="M2.79643 10.0607H26.8296C27.1969 10.0607 27.5605 10.133 27.8998 10.2735C28.2391 10.4141 28.5473 10.6201 28.807 10.8797C29.0667 11.1394 29.2727 11.4477 29.4132 11.7869C29.5537 12.1262 29.6261 12.4899 29.6261 12.8571C29.6261 13.2243 29.5537 13.588 29.4132 13.9272C29.2727 14.2665 29.0667 14.5748 28.807 14.8345C28.5473 15.0941 28.2391 15.3001 27.8998 15.4407C27.5605 15.5812 27.1969 15.6535 26.8296 15.6535H2.79643C2.4292 15.6535 2.06556 15.5812 1.72628 15.4407C1.387 15.3001 1.07873 15.0941 0.819055 14.8345C0.559383 14.5748 0.353399 14.2665 0.212865 13.9272C0.0723318 13.588 0 13.2243 0 12.8571C0 12.4899 0.0723318 12.1262 0.212865 11.7869C0.353399 11.4477 0.559383 11.1394 0.819055 10.8797C1.07873 10.6201 1.387 10.4141 1.72628 10.2735C2.06556 10.133 2.4292 10.0607 2.79643 10.0607V10.0607Z" fill="#0572FF"/>
<path d="M2.79643 20.1226H26.8296C27.1969 20.1226 27.5605 20.1949 27.8998 20.3354C28.2391 20.476 28.5473 20.6819 28.807 20.9416C29.0667 21.2013 29.2727 21.5096 29.4132 21.8488C29.5537 22.1881 29.6261 22.5518 29.6261 22.919C29.6261 23.2862 29.5537 23.6499 29.4132 23.9891C29.2727 24.3284 29.0667 24.6367 28.807 24.8964C28.5473 25.156 28.2391 25.362 27.8998 25.5026C27.5605 25.6431 27.1969 25.7154 26.8296 25.7154H2.79643C2.4292 25.7154 2.06556 25.6431 1.72628 25.5026C1.387 25.362 1.07873 25.156 0.819055 24.8964C0.559383 24.6367 0.353399 24.3284 0.212865 23.9891C0.0723318 23.6499 0 23.2862 0 22.919C0 22.5518 0.0723318 22.1881 0.212865 21.8488C0.353399 21.5096 0.559383 21.2013 0.819055 20.9416C1.07873 20.6819 1.387 20.476 1.72628 20.3354C2.06556 20.1949 2.4292 20.1226 2.79643 20.1226V20.1226Z" fill="#0572FF"/>
</g>
<defs>
<clipPath id="clip0">
<rect width="30" height="25.7143" fill="white"/>
</clipPath>
</defs>
</svg>
