<?xml version="1.0" standalone="no"?>
<!DOCTYPE svg PUBLIC "-//W3C//DTD SVG 20010904//EN"
 "http://www.w3.org/TR/2001/REC-SVG-20010904/DTD/svg10.dtd">
<svg version="1.0" xmlns="http://www.w3.org/2000/svg"
 width="500.000000pt" height="500.000000pt" viewBox="0 0 500.000000 500.000000"
 preserveAspectRatio="xMidYMid meet">
>
<g transform="translate(0.000000,500.000000) scale(0.100000,-0.100000)"
fill="#000000" stroke="none">
<path d="M381 4852 c-43 -21 -70 -57 -77 -103 l-6 -36 231 -8 231 -7 0 -194 0
-194 -215 0 -215 0 0 -62 c0 -75 26 -138 66 -165 27 -17 90 -18 1299 -23 1150
-5 1275 -7 1318 -22 60 -20 120 -61 136 -92 13 -23 16 -23 239 -31 129 -4 232
-11 239 -17 25 -21 64 -171 70 -270 l6 -98 -291 0 -292 0 0 -60 c0 -84 -26
-204 -60 -271 l-27 -56 180 -6 c99 -4 261 -7 360 -7 177 0 180 0 163 -19 -32
-35 -115 -63 -215 -72 -53 -4 -628 -8 -1279 -9 -928 0 -1188 -3 -1205 -12 -16
-10 -119 -14 -376 -18 l-354 -5 -21 -40 c-19 -37 -21 -59 -24 -297 l-3 -258
139 0 c76 0 194 -3 260 -7 l122 -6 0 -194 0 -193 -185 0 -185 0 0 -313 0 -314
128 -6 c70 -4 160 -7 200 -7 l72 0 0 -65 0 -65 -200 0 -200 0 0 -370 0 -370
123 0 124 0 15 -38 c8 -22 32 -52 53 -68 l38 -29 301 0 c285 0 302 1 328 20
24 17 68 88 68 108 0 4 -54 7 -120 7 l-120 0 0 363 0 364 263 6 c144 4 346 7
450 7 l187 0 0 65 0 65 -187 0 c-104 0 -306 3 -450 7 l-263 6 0 313 0 314 188
2 187 3 3 108 3 107 572 0 572 0 57 -103 57 -102 -185 -3 c-102 -1 -184 -6
-182 -10 2 -4 83 -147 181 -318 l178 -311 76 -7 c42 -3 134 -6 204 -6 l129 0
30 -60 c16 -33 30 -62 30 -65 0 -3 -85 -5 -190 -5 -104 0 -190 -3 -190 -8 0
-4 92 -169 204 -367 l205 -360 125 -6 c69 -3 127 -7 129 -10 1 -2 15 -23 30
-46 50 -79 47 -78 438 -78 380 0 382 0 419 61 11 17 20 41 20 53 0 20 -4 21
-125 21 l-125 0 0 35 c0 45 2 40 -206 393 -96 162 -174 295 -174 297 0 1 87 6
194 10 l194 7 -33 62 -34 61 -206 10 -206 10 -183 310 -184 310 184 3 c101 1
184 6 184 10 0 4 -29 56 -65 117 l-64 110 57 11 c89 17 170 43 257 84 151 71
153 69 -131 70 l-251 0 81 83 c51 51 98 112 125 161 45 80 114 253 126 317 l7
36 346 9 346 9 6 25 c4 14 9 39 13 56 l6 32 -371 7 -370 8 6 51 c4 28 9 115
13 194 l6 142 294 0 294 0 -7 108 c-4 59 -12 145 -18 192 l-12 85 -174 6 c-96
4 -198 7 -226 8 l-51 1 -13 73 c-10 59 -49 206 -77 290 -5 16 9 17 206 17 116
0 211 2 211 5 0 3 -12 29 -26 58 -49 97 -114 185 -190 256 l-76 71 -231 0
-230 0 -111 55 c-121 60 -212 87 -351 104 -61 7 -509 11 -1410 11 -1237 0
-1322 -1 -1354 -18z"/>
<path d="M1320 3815 l0 -35 508 2 507 3 3 33 3 32 -510 0 -511 0 0 -35z"/>
<path d="M680 3290 l0 -70 575 0 575 0 0 70 0 70 -575 0 -575 0 0 -70z"/>
<path d="M1610 875 l0 -35 505 0 505 0 0 35 0 35 -505 0 -505 0 0 -35z"/>
</g>
</svg>
